<svg width="50" height="50" viewBox="0 0 50 50" fill="none" xmlns="http://www.w3.org/2000/svg">
<path d="M17.0458 22.2979V13.7396C17.0458 9.88542 20.227 6.25 24.9999 6.25C29.7729 6.25 32.9541 9.8875 32.9541 13.7396V22.2979" stroke="#1A3358" stroke-width="2" stroke-linecap="round" stroke-linejoin="round"/>
<path fill-rule="evenodd" clip-rule="evenodd" d="M9.375 23.7354V40C9.375 45.6042 18.05 46.875 25 46.875C31.95 46.875 40.625 45.6062 40.625 39.9979V23.7354C40.6247 23.4622 40.5706 23.1917 40.4657 22.9394C40.3609 22.6871 40.2073 22.458 40.0138 22.2651C39.8203 22.0722 39.5907 21.9193 39.3381 21.8152C39.0855 21.7111 38.8149 21.6578 38.5417 21.6583H11.4583C10.3083 21.6583 9.375 22.5854 9.375 23.7354ZM21.875 33.3396C21.875 34.3312 22.3062 35.2229 22.9917 35.8354V39.0687C22.9917 39.6213 23.2112 40.1512 23.6019 40.5419C23.9926 40.9326 24.5225 41.1521 25.075 41.1521H25.3729C25.9254 41.1521 26.4554 40.9326 26.8461 40.5419C27.2368 40.1512 27.4562 39.6213 27.4562 39.0687V35.8333C27.8722 35.4609 28.1884 34.9904 28.376 34.4645C28.5637 33.9387 28.6169 33.3743 28.5308 32.8227C28.4446 32.2711 28.2219 31.7498 27.8829 31.3062C27.5439 30.8626 27.0993 30.5108 26.5896 30.2829C26.08 30.055 25.5214 29.9582 24.9647 30.0012C24.4081 30.0443 23.8711 30.2259 23.4025 30.5294C22.9339 30.833 22.5487 31.2489 22.282 31.7394C22.0152 32.2298 21.8753 32.7813 21.875 33.3396Z" fill="#1A3358"/>
</svg>
