<svg width="18" height="17" viewBox="0 0 18 17" fill="none" xmlns="http://www.w3.org/2000/svg">
<path fill-rule="evenodd" clip-rule="evenodd" d="M15.154 12.853C15.2249 12.9209 15.3142 12.9665 15.4107 12.984C15.5073 13.0015 15.6069 12.9903 15.6972 12.9515C15.7874 12.9128 15.8642 12.8484 15.918 12.7664C15.9719 12.6843 16.0004 12.5882 16 12.49V2.5C16 2.36739 15.9473 2.24021 15.8536 2.14645C15.7598 2.05268 15.6326 2 15.5 2H2.5C2.36739 2 2.24021 2.05268 2.14645 2.14645C2.05268 2.24021 2 2.36739 2 2.5V8.765C2 8.89761 2.05268 9.02479 2.14645 9.11855C2.24021 9.21232 2.36739 9.265 2.5 9.265H10.8C11.1859 9.26494 11.5569 9.41357 11.836 9.68L15.154 12.853ZM18 14.83C18 16.15 16.418 16.827 15.463 15.915L10.743 11.403C10.65 11.3144 10.5265 11.265 10.398 11.265H1.5C1.10218 11.265 0.720644 11.107 0.43934 10.8257C0.158035 10.5444 0 10.1628 0 9.765V1.5C0 1.10218 0.158035 0.720644 0.43934 0.43934C0.720644 0.158035 1.10218 0 1.5 0H16.5C16.8978 0 17.2794 0.158035 17.5607 0.43934C17.842 0.720644 18 1.10218 18 1.5V14.83Z" fill="white"/>
<path d="M4 4H14M4 7H14" stroke="white" stroke-width="1.5" stroke-linecap="round" stroke-linejoin="round"/>
</svg>
