<svg width="22" height="20" viewBox="0 0 22 20" fill="none" xmlns="http://www.w3.org/2000/svg">
<path d="M21.7498 0.395164C21.3829 -0.0042549 20.7591 -0.104109 20.2822 0.195454L18.1539 1.52685C17.1632 0.561589 15.769 0.02903 14.2646 0.02903C11.2925 0.02903 8.83408 2.22583 8.83408 4.9552C8.83408 5.35462 8.87078 5.72075 8.98085 6.08688C6.41237 5.58761 4.87128 3.89008 4.28421 0.827868C4.21082 0.428449 3.88058 0.128885 3.44027 0.02903C3.03666 -0.0708248 2.59635 0.0955998 2.3395 0.395164C2.26612 0.461734 -3.78815 8.11727 4.98136 14.6078C4.13744 16.2387 1.60565 17.6368 0.614949 18.1027C0.137947 18.3024 -0.0822087 18.7684 0.027869 19.2345C0.137947 19.7004 0.578257 20 1.09195 20H2.99996C14.1545 20 19.2181 14.974 19.3281 3.72365L21.6398 1.72656C22.0801 1.39371 22.1167 0.794583 21.7498 0.395164Z" fill="white"/>
</svg>
