<svg width="50" height="50" viewBox="0 0 50 50" fill="none" xmlns="http://www.w3.org/2000/svg">
<path d="M29.1667 17.7083C29.1667 19.0897 28.6179 20.4144 27.6412 21.3912C26.6644 22.3679 25.3397 22.9167 23.9583 22.9167C22.577 22.9167 21.2522 22.3679 20.2755 21.3912C19.2987 20.4144 18.75 19.0897 18.75 17.7083C18.75 16.327 19.2987 15.0022 20.2755 14.0255C21.2522 13.0487 22.577 12.5 23.9583 12.5C25.3397 12.5 26.6644 13.0487 27.6412 14.0255C28.6179 15.0022 29.1667 16.327 29.1667 17.7083Z" stroke="#1A3358" stroke-width="2"/>
<path d="M38.5417 41.6667C35.4167 42.7083 12.5 43.75 10.4167 41.6667C8.33335 39.5833 17.5208 30.2083 25 30.2083C32.4792 30.2083 41.6667 40.625 38.5417 41.6667Z" stroke="#1A3358" stroke-width="2" stroke-linecap="round" stroke-linejoin="round"/>
</svg>
