<svg width="17" height="17" viewBox="0 0 17 17" fill="none" xmlns="http://www.w3.org/2000/svg">
<path d="M11 3.5C11 4.16304 10.7366 4.79893 10.2678 5.26777C9.79893 5.73661 9.16304 6 8.5 6C7.83696 6 7.20107 5.73661 6.73223 5.26777C6.26339 4.79893 6 4.16304 6 3.5C6 2.83696 6.26339 2.20107 6.73223 1.73223C7.20107 1.26339 7.83696 1 8.5 1C9.16304 1 9.79893 1.26339 10.2678 1.73223C10.7366 2.20107 11 2.83696 11 3.5Z" stroke="white" stroke-width="2"/>
<path d="M15.5 15C14 15.5 3.00001 16 2.00001 15C1.00001 14 5.41001 9.5 9.00001 9.5C12.59 9.5 17 14.5 15.5 15Z" stroke="white" stroke-width="2" stroke-linecap="round" stroke-linejoin="round"/>
</svg>
